<svg xmlns="http://www.w3.org/2000/svg" viewBox="-0.5 -0.5 24 24" height="24" width="24">
  <desc>Content Files Open Book Streamline Icon: https://streamlinehq.com</desc>
  <title>content-files-open-book</title>
  <g id="book">
    <path d="M20.8078125 6.023125h1.0996875v13.145937499999999h-1.0996875Z"    stroke-width="1"></path>
    <path d="M18.6228125 19.169062500000003h2.185v1.0925h-2.185Z"    stroke-width="1"></path>
    <path d="M16.430625 18.069375h2.1921874999999997v1.0996875h-2.1921874999999997Z"    stroke-width="1"></path>
    <path d="M13.145937499999999 16.976875h3.2846875000000004v1.0925h-3.2846875000000004Z"    stroke-width="1"></path>
    <path d="M14.2384375 11.5h3.2846875000000004v1.0925h-3.2846875000000004Z"    stroke-width="1"></path>
    <path d="M14.2384375 8.2153125h3.2846875000000004v1.0925h-3.2846875000000004Z"    stroke-width="1"></path>
    <path d="M14.2384375 4.930625h3.2846875000000004v1.0925h-3.2846875000000004Z"    stroke-width="1"></path>
    <path d="M13.145937499999999 2.7384375h5.476875v1.0925h-5.476875Z"    stroke-width="1"></path>
    <path d="M13.145937499999999 9.307812499999999h1.0925v1.0996875h-1.0925Z"    stroke-width="1"></path>
    <path d="M13.145937499999999 6.023125h1.0925v1.0996875h-1.0925Z"    stroke-width="1"></path>
    <path d="M12.04625 3.8309375h1.0996875v1.0996875h-1.0996875Z"    stroke-width="1"></path>
    <path d="M9.86125 18.069375h3.2846875000000004v1.0996875h-3.2846875000000004Z"    stroke-width="1"></path>
    <path d="M9.86125 3.8309375h1.0925v1.0996875h-1.0925Z"    stroke-width="1"></path>
    <path d="M6.569375000000001 16.976875h3.291875v1.0925H6.569375000000001Z"    stroke-width="1"></path>
    <path d="M8.7615625 9.307812499999999h1.0996875v1.0996875h-1.0996875Z"    stroke-width="1"></path>
    <path d="M8.7615625 6.023125h1.0996875v1.0996875h-1.0996875Z"    stroke-width="1"></path>
    <path d="M5.476875 11.5h3.2846875000000004v1.0925H5.476875Z"    stroke-width="1"></path>
    <path d="M5.476875 8.2153125h3.2846875000000004v1.0925H5.476875Z"    stroke-width="1"></path>
    <path d="M5.476875 4.930625h3.2846875000000004v1.0925H5.476875Z"    stroke-width="1"></path>
    <path d="M4.3843749999999995 2.7384375h5.476875v1.0925H4.3843749999999995Z"    stroke-width="1"></path>
    <path d="M4.3843749999999995 18.069375h2.185v1.0996875H4.3843749999999995Z"    stroke-width="1"></path>
    <path d="m9.86125 14.7846875 0 -1.0925 -3.291875 0 0 1.0925 -2.185 0 0 -10.95375 -1.0996875 0 0 1.0996875 -1.0925 0 0 1.0925 1.0925 0 0 10.95375 3.2846875000000004 0 0 -1.0925 3.291875 0 0 1.0925 3.2846875000000004 0 0 -1.0925 3.2846875000000004 0 0 1.0925 3.2846875000000004 0 0 -10.95375 1.0925 0 0 -1.0925 -1.0925 0 0 -1.0996875 -1.0925 0 0 10.95375 -2.1921874999999997 0 0 -1.0925 -3.2846875000000004 0 0 1.0925 -1.0996875 0 0 -9.854062500000001 -1.0925 0 0 9.854062500000001 -1.0925 0z"    stroke-width="1"></path>
    <path d="M2.1921874999999997 19.169062500000003H4.3843749999999995v1.0925H2.1921874999999997Z"    stroke-width="1"></path>
    <path d="M1.0925 6.023125h1.0996875v13.145937499999999H1.0925Z"    stroke-width="1"></path></g></svg>
